<?xml version="1.0" encoding="UTF-8" standalone="no"?>
<svg
   xmlns:dc="http://purl.org/dc/elements/1.1/"
   xmlns:cc="http://creativecommons.org/ns#"
   xmlns:rdf="http://www.w3.org/1999/02/22-rdf-syntax-ns#"
   xmlns:svg="http://www.w3.org/2000/svg"
   xmlns="http://www.w3.org/2000/svg"
   xmlns:xlink="http://www.w3.org/1999/xlink"
   xmlns:sodipodi="http://sodipodi.sourceforge.net/DTD/sodipodi-0.dtd"
   xmlns:inkscape="http://www.inkscape.org/namespaces/inkscape"
   id="svg6"
   version="1.1"
   width="16"
   height="16"
   sodipodi:docname="in.svg"
   inkscape:version="0.92.3 (2405546, 2018-03-11)">
  <sodipodi:namedview
     pagecolor="#ffffff"
     bordercolor="#666666"
     borderopacity="1"
     objecttolerance="10"
     gridtolerance="10"
     guidetolerance="10"
     inkscape:pageopacity="0"
     inkscape:pageshadow="2"
     inkscape:window-width="1920"
     inkscape:window-height="1017"
     id="namedview24"
     showgrid="false"
     inkscape:pagecheckerboard="true"
     inkscape:zoom="41.7193"
     inkscape:cx="7.6106671"
     inkscape:cy="9.2050877"
     inkscape:window-x="1920"
     inkscape:window-y="30"
     inkscape:window-maximized="1"
     inkscape:current-layer="svg6" />
  <metadata
     id="metadata12">
    <rdf:RDF>
      <cc:Work
         rdf:about="">
        <dc:format>image/svg+xml</dc:format>
        <dc:type
           rdf:resource="http://purl.org/dc/dcmitype/StillImage" />
        <dc:title />
      </cc:Work>
    </rdf:RDF>
  </metadata>
  <defs
     id="defs10">
    <linearGradient
       y2="10.24962"
       x2="23.836843"
       y1="10.24962"
       x1="1.6827964"
       gradientTransform="matrix(0,0.61157583,-0.6008607,0,14.611229,0.9708424)"
       gradientUnits="userSpaceOnUse"
       id="linearGradient72"
       xlink:href="#linearGradient78" />
    <linearGradient
       id="linearGradient78">
      <stop
         id="stop74"
         offset="0"
         style="stop-color:#9bdb4d;stop-opacity:1" />
      <stop
         id="stop76"
         offset="1"
         style="stop-color:#68b723;stop-opacity:1" />
    </linearGradient>
    <linearGradient
       y2="57.037033"
       x2="17.949821"
       y1="57.037033"
       x1="25.631071"
       gradientTransform="matrix(0,-0.39056144,0.43562686,0,-15.519345,20.010508)"
       gradientUnits="userSpaceOnUse"
       id="linearGradient940"
       xlink:href="#linearGradient1356" />
    <linearGradient
       id="linearGradient1356">
      <stop
         offset="0"
         style="stop-color:#ffffff;stop-opacity:1"
         id="stop1348" />
      <stop
         offset="0.00000001"
         style="stop-color:#ffffff;stop-opacity:0.23529412"
         id="stop1350" />
      <stop
         offset="1"
         style="stop-color:#ffffff;stop-opacity:0.15686275"
         id="stop1352" />
      <stop
         offset="1"
         style="stop-color:#ffffff;stop-opacity:0.39215687"
         id="stop1354" />
    </linearGradient>
    <linearGradient
       xlink:href="#linearGradient1597"
       id="linearGradient940-2"
       gradientUnits="userSpaceOnUse"
       gradientTransform="matrix(0,-0.66975928,0.49699178,0,-18.864984,27.525589)"
       x1="35.125439"
       y1="53.037033"
       x2="27.66007"
       y2="53.037033" />
    <linearGradient
       id="linearGradient1597">
      <stop
         id="stop1589"
         style="stop-color:#ffffff;stop-opacity:1"
         offset="0" />
      <stop
         id="stop1591"
         style="stop-color:#ffffff;stop-opacity:0.23529412"
         offset="0" />
      <stop
         id="stop1593"
         style="stop-color:#ffffff;stop-opacity:0.15686275"
         offset="1" />
      <stop
         id="stop1595"
         style="stop-color:#ffffff;stop-opacity:0.39215687"
         offset="1" />
    </linearGradient>
  </defs>
  <path
     id="path873-5-5"
     style="vector-effect:none;fill:none;fill-opacity:1;stroke:#ffffff;stroke-width:0.99999702;stroke-linecap:round;stroke-linejoin:round;stroke-miterlimit:4;stroke-dasharray:none;stroke-dashoffset:0;stroke-opacity:1"
     d="M 8.6200927,7.37726 C 8.5750987,7.332268 8.5541267,7.2753322 8.5526927,7.2120246 L 8.6374857,2.465852 c -0.00155,-0.067713 0.022995,-0.13605 0.078271,-0.1913249 0.1027037,-0.102702 0.2518472,-0.106891 0.3489559,-0.00978 l 1.3338594,1.3338417 c 0.09057,0.090697 0.247538,0.085109 0.346781,-0.014132 L 13.73811,0.59173862 c 0.0973,-0.0973006 0.242489,-0.0988576 0.338085,-0.003263 l 1.337121,1.33710278 c 0.09559,0.095596 0.09404,0.24078 -0.0032,0.3380806 l -3.010214,3.0101098 c -0.08274,0.099467 -0.08208,0.2441571 0.0033,0.3293838 l 1.333859,1.3338419 c 0.09711,0.097107 0.09075,0.2440742 -0.01195,0.3467773 -0.102738,0.1027276 -0.14184,0.056925 -0.192415,0.077187 l -4.7462374,0.084791 c -0.061369,5.14e-4 -0.1210079,-0.023173 -0.1663249,-0.068485 z"
     inkscape:connector-curvature="0" />
  <path
     inkscape:connector-curvature="0"
     d="m 7.3506168,8.653811 c 0.044994,0.04499 0.065966,0.101928 0.0674,0.165236 l -0.084793,4.746172 c 0.00155,0.06771 -0.022995,0.13605 -0.078271,0.191325 -0.1027037,0.102702 -0.2518472,0.106891 -0.3489559,0.0098 L 5.5721375,12.432503 c -0.09057,-0.0907 -0.247538,-0.08511 -0.346781,0.01413 l -2.992757,2.992718 c -0.0973,0.0973 -0.242489,0.09886 -0.338085,0.0033 L 0.55739351,14.105548 c -0.09559,-0.0956 -0.09404,-0.24078 0.0032,-0.338081 L 3.5708075,10.757358 c 0.08274,-0.09947 0.08208,-0.244157 -0.0033,-0.329384 L 2.2336485,9.094092 c -0.09711,-0.09711 -0.09075,-0.244074 0.01195,-0.346777 0.102738,-0.102728 0.14184,-0.05692 0.192415,-0.07719 l 4.7462374,-0.08479 c 0.061369,-5.14e-4 0.1210079,0.02317 0.1663249,0.06848 z"
     style="vector-effect:none;fill:none;fill-opacity:1;stroke:#ffffff;stroke-width:0.99999702;stroke-linecap:round;stroke-linejoin:round;stroke-miterlimit:4;stroke-dasharray:none;stroke-dashoffset:0;stroke-opacity:1"
     id="path837" />
</svg>
