<?xml version="1.0" encoding="UTF-8" standalone="no"?>
<svg
   xmlns:dc="http://purl.org/dc/elements/1.1/"
   xmlns:cc="http://creativecommons.org/ns#"
   xmlns:rdf="http://www.w3.org/1999/02/22-rdf-syntax-ns#"
   xmlns:svg="http://www.w3.org/2000/svg"
   xmlns="http://www.w3.org/2000/svg"
   xmlns:xlink="http://www.w3.org/1999/xlink"
   xmlns:sodipodi="http://sodipodi.sourceforge.net/DTD/sodipodi-0.dtd"
   xmlns:inkscape="http://www.inkscape.org/namespaces/inkscape"
   id="svg6"
   version="1.1"
   width="16"
   height="16"
   sodipodi:docname="pinch.svg"
   inkscape:version="0.92.3 (2405546, 2018-03-11)">
  <sodipodi:namedview
     pagecolor="#ffffff"
     bordercolor="#666666"
     borderopacity="1"
     objecttolerance="10"
     gridtolerance="10"
     guidetolerance="10"
     inkscape:pageopacity="0"
     inkscape:pageshadow="2"
     inkscape:window-width="1920"
     inkscape:window-height="1017"
     id="namedview24"
     showgrid="false"
     inkscape:pagecheckerboard="true"
     inkscape:zoom="41.7193"
     inkscape:cx="0.20402314"
     inkscape:cy="9.2050877"
     inkscape:window-x="1920"
     inkscape:window-y="30"
     inkscape:window-maximized="1"
     inkscape:current-layer="svg6" />
  <metadata
     id="metadata12">
    <rdf:RDF>
      <cc:Work
         rdf:about="">
        <dc:format>image/svg+xml</dc:format>
        <dc:type
           rdf:resource="http://purl.org/dc/dcmitype/StillImage" />
        <dc:title />
      </cc:Work>
    </rdf:RDF>
  </metadata>
  <defs
     id="defs10">
    <linearGradient
       y2="10.24962"
       x2="23.836843"
       y1="10.24962"
       x1="1.6827964"
       gradientTransform="matrix(0,0.61157583,-0.6008607,0,14.611229,0.9708424)"
       gradientUnits="userSpaceOnUse"
       id="linearGradient72"
       xlink:href="#linearGradient78" />
    <linearGradient
       id="linearGradient78">
      <stop
         id="stop74"
         offset="0"
         style="stop-color:#9bdb4d;stop-opacity:1" />
      <stop
         id="stop76"
         offset="1"
         style="stop-color:#68b723;stop-opacity:1" />
    </linearGradient>
    <linearGradient
       y2="57.037033"
       x2="17.949821"
       y1="57.037033"
       x1="25.631071"
       gradientTransform="matrix(0,-0.39056144,0.43562686,0,-15.519345,20.010508)"
       gradientUnits="userSpaceOnUse"
       id="linearGradient940"
       xlink:href="#linearGradient1356" />
    <linearGradient
       id="linearGradient1356">
      <stop
         offset="0"
         style="stop-color:#ffffff;stop-opacity:1"
         id="stop1348" />
      <stop
         offset="0.00000001"
         style="stop-color:#ffffff;stop-opacity:0.23529412"
         id="stop1350" />
      <stop
         offset="1"
         style="stop-color:#ffffff;stop-opacity:0.15686275"
         id="stop1352" />
      <stop
         offset="1"
         style="stop-color:#ffffff;stop-opacity:0.39215687"
         id="stop1354" />
    </linearGradient>
    <linearGradient
       xlink:href="#linearGradient1597"
       id="linearGradient940-2"
       gradientUnits="userSpaceOnUse"
       gradientTransform="matrix(0,-0.66975928,0.49699178,0,-18.864984,27.525589)"
       x1="35.125439"
       y1="53.037033"
       x2="27.66007"
       y2="53.037033" />
    <linearGradient
       id="linearGradient1597">
      <stop
         id="stop1589"
         style="stop-color:#ffffff;stop-opacity:1"
         offset="0" />
      <stop
         id="stop1591"
         style="stop-color:#ffffff;stop-opacity:0.23529412"
         offset="0" />
      <stop
         id="stop1593"
         style="stop-color:#ffffff;stop-opacity:0.15686275"
         offset="1" />
      <stop
         id="stop1595"
         style="stop-color:#ffffff;stop-opacity:0.39215687"
         offset="1" />
    </linearGradient>
  </defs>
  <path
     id="path873-5-5"
     style="vector-effect:none;fill:none;fill-opacity:1;stroke:#ffffff;stroke-width:0.99999696;stroke-linecap:round;stroke-linejoin:round;stroke-miterlimit:4;stroke-dasharray:none;stroke-dashoffset:0;stroke-opacity:1"
     d="m 15.438742,0.56382212 c 0.03145,0.0314559 0.04612,0.0712622 0.04713,0.11552323 L 15.42659,3.9976009 c 0.001,0.047339 -0.01607,0.095119 -0.05472,0.1337628 -0.07181,0.071803 -0.176082,0.074732 -0.243977,0.00685 L 14.1953,3.2056692 c -0.06332,-0.063412 -0.173068,-0.059504 -0.242455,0.00988 l -2.092421,2.092339 c -0.06803,0.068027 -0.169539,0.069118 -0.236375,0.00231 L 10.689185,4.3753676 c -0.06683,-0.066838 -0.06575,-0.1683398 0.0023,-0.2363663 L 12.79608,2.0345027 C 12.85392,1.9649587 12.85347,1.863802 12.79378,1.8042161 L 11.861158,0.87163082 c -0.0679,-0.0678917 -0.06345,-0.17064285 0.0083,-0.24244704 0.07183,-0.0718214 0.09917,-0.0397987 0.134529,-0.0539648 l 3.318387,-0.0592811 c 0.0429,-3.5936e-4 0.0846,0.0162012 0.116287,0.0478809 z"
     inkscape:connector-curvature="0" />
  <circle
     style="fill:none;fill-opacity:1;stroke:#ffffff;stroke-width:1;stroke-miterlimit:4;stroke-dasharray:none;stroke-opacity:1"
     id="circle843"
     cx="8.0298567"
     cy="7.6825066"
     r="2" />
  <path
     inkscape:connector-curvature="0"
     d="m 0.53374885,15.465461 c -0.03145,-0.03146 -0.04612,-0.07126 -0.04713,-0.115524 l 0.05928,-3.318255 c -0.001,-0.04734 0.01607,-0.09512 0.05472,-0.133763 0.07181,-0.0718 0.176082,-0.07473 0.243977,-0.0069 l 0.93259305,0.932545 c 0.06332,0.06341 0.173068,0.0595 0.242455,-0.0099 l 2.092421,-2.092339 c 0.06803,-0.06803 0.169539,-0.06912 0.236375,-0.0023 l 0.934864,0.93489 c 0.06683,0.06684 0.06575,0.16834 -0.0023,0.236367 l -2.104595,2.104498 c -0.05784,0.06954 -0.05739,0.170701 0.0023,0.230287 l 0.932622,0.932585 c 0.0679,0.06789 0.06345,0.170643 -0.0083,0.242447 -0.07183,0.07182 -0.09917,0.0398 -0.134529,0.05396 l -3.31838705,0.05928 c -0.0429,3.59e-4 -0.0846,-0.0162 -0.116287,-0.04788 z"
     style="vector-effect:none;fill:none;fill-opacity:1;stroke:#ffffff;stroke-width:0.99999696;stroke-linecap:round;stroke-linejoin:round;stroke-miterlimit:4;stroke-dasharray:none;stroke-dashoffset:0;stroke-opacity:1"
     id="path835" />
</svg>
